<svg width="1000" height="1000" viewBox="0 0 1000 1000" fill="none" xmlns="http://www.w3.org/2000/svg">
<g clip-path="url(#clip0_10_312)">
<circle cx="500" cy="500" r="500" fill="white"/>
<path d="M499.449 236.697C501.108 237.181 501.108 237.181 502.401 236.678C507.098 235.306 513.146 235.891 517.496 237.863C530.423 244.699 535.302 256.545 541.104 268.252C542.252 270.569 543.403 272.886 544.553 275.203C544.855 275.812 545.158 276.422 545.46 277.031C548.236 282.627 551.041 288.212 553.852 293.794C556.218 298.493 558.575 303.194 560.926 307.898C561.087 308.219 561.247 308.54 561.412 308.871C562.043 310.133 562.673 311.395 563.304 312.657C564.766 315.584 566.231 318.509 567.697 321.434C567.933 321.906 568.17 322.377 568.413 322.863C569.605 325.243 570.799 327.621 571.996 329.998C574.621 335.215 577.208 340.444 579.739 345.698C581.516 349.386 583.331 353.057 585.177 356.718C588.201 362.724 591.133 368.764 594.037 374.818C594.83 376.47 595.625 378.122 596.425 379.771C607.179 401.937 616.832 424.734 620.845 448.754C620.933 449.272 621.021 449.789 621.112 450.322C623.663 465.695 623.745 481.685 621.271 497.061C620.681 500.781 620.272 504.518 619.842 508.255C619.563 510.687 619.279 513.119 618.995 515.551C618.963 515.82 618.932 516.09 618.9 516.367C618.29 521.599 617.666 526.829 617.041 532.059C616.703 534.888 616.366 537.718 616.029 540.547C615.748 542.904 615.466 545.26 615.183 547.616C610.605 580.335 610.605 580.335 620.845 611.384C620.991 611.63 621.137 611.877 621.288 612.131C623.48 615.825 626.05 619.108 629.004 622.334C629.195 622.544 629.386 622.754 629.583 622.971C636.647 630.725 644.613 637.594 653.143 644.039C653.955 644.654 654.762 645.274 655.568 645.896C657.948 647.732 660.334 649.557 662.774 651.331C667.284 654.611 671.651 658.045 676.038 661.454C677.881 662.885 679.731 664.309 681.585 665.728C681.647 665.469 681.708 665.209 681.771 664.941C682.821 661.166 684.863 659.469 688.498 657.465C690.807 656.266 692.483 655.831 695.184 655.995C697.354 656.792 698.731 657.829 700.34 659.341C701.776 660.669 703.216 661.967 704.788 663.168C707.892 665.556 710.563 668.152 713.126 671.006C714.301 672.305 715.504 673.581 716.715 674.854C718.551 676.788 720.361 678.738 722.153 680.706C723.566 682.256 724.984 683.802 726.404 685.347C726.675 685.643 726.946 685.938 727.225 686.242C728.711 687.857 730.214 689.457 731.74 691.041C736.611 696.114 738.177 700.384 738.82 707.038C739.07 709.462 739.445 710.808 741.533 712.368C741.854 712.611 742.175 712.855 742.507 713.106C742.896 713.398 743.285 713.69 743.686 713.99C744.727 714.782 745.764 715.577 746.802 716.373C747.078 716.583 747.353 716.794 747.637 717.011C749.241 718.239 750.822 719.486 752.383 720.758C753.866 721.963 755.382 723.109 756.944 724.23C759.244 725.893 761.392 727.671 763.542 729.482C765.497 731.12 767.528 732.641 769.619 734.14C771.625 735.631 773.516 737.23 775.423 738.821C777.511 740.562 779.668 742.226 781.842 743.881C782.382 744.293 782.922 744.705 783.462 745.117C783.735 745.325 784.009 745.534 784.291 745.749C786.313 747.3 788.278 748.898 790.228 750.52C791.641 751.687 793.094 752.787 794.596 753.862C796.997 755.589 799.221 757.457 801.457 759.35C803.46 761.036 805.532 762.603 807.681 764.138C809.813 765.726 811.814 767.439 813.837 769.137C814.99 770.103 816.156 771.054 817.345 771.985C817.62 772.201 817.894 772.417 818.177 772.639C818.871 773.156 819.608 773.626 820.348 774.089C822.682 775.839 824.082 778.639 824.605 781.276C824.756 784.714 823.47 787.298 821.113 789.956C818.613 792.326 816.055 793.15 812.444 793.328C808.34 793.199 804.998 791.696 802.132 789.095C801.705 788.679 801.705 788.679 801.269 788.255C800.253 787.309 799.172 786.515 798.024 785.698C795.385 783.804 792.935 781.757 790.468 779.689C788.351 777.914 786.16 776.223 783.95 774.54C780.849 772.176 777.8 769.773 774.807 767.299C772.758 765.612 770.656 763.985 768.535 762.37C765.926 760.381 763.337 758.383 760.826 756.295C759.173 754.921 757.486 753.606 755.726 752.341C753.277 750.577 750.986 748.685 748.688 746.767C746.2 744.255 746.2 744.255 743.233 742.785C743.243 743.046 743.254 743.307 743.264 743.575C743.447 751.759 743.447 751.759 741.023 754.039C740.412 754.492 739.787 754.93 739.153 755.357C738.743 755.667 738.333 755.976 737.91 756.295C734.58 758.71 731.75 759.808 727.552 760.385C721.092 761.331 717.757 765.653 713.939 770.008C713.612 770.38 713.612 770.38 713.279 770.76C712.445 771.713 711.612 772.665 710.803 773.634C708.525 776.237 705.369 778.126 702.437 780.096C702.079 780.342 701.72 780.589 701.351 780.842C698.806 782.521 696.076 783.928 693.343 785.343C692.785 785.634 692.785 785.634 692.216 785.931C686.202 788.997 680.004 791.4 673.424 793.304C672.369 793.609 671.316 793.921 670.263 794.235C660.461 797.13 660.461 797.13 657.108 797.13C660.099 800.455 663.2 803.684 666.332 806.903C669.46 810.126 672.55 813.379 675.628 816.64C677.144 818.245 678.668 819.843 680.197 821.438C680.422 821.673 680.648 821.908 680.88 822.15C682.037 823.356 683.195 824.562 684.355 825.766C686.435 827.928 688.502 830.095 690.51 832.312C692.121 834.089 693.81 835.786 695.531 837.478C696.545 838.497 697.511 839.54 698.47 840.601C700.113 842.415 701.8 844.188 703.513 845.949C706 848.504 708.456 851.079 710.896 853.669C711.918 854.755 712.943 855.84 713.967 856.924C714.17 857.139 714.373 857.354 714.582 857.576C715.924 858.996 717.278 860.405 718.637 861.811C719.741 862.957 720.837 864.109 721.928 865.264C722.225 865.577 722.522 865.891 722.828 866.214C725.116 868.769 726.323 871.562 726.162 874.867C725.646 878.015 724.106 880.215 721.608 882.422C718.067 884.759 714.309 884.639 710.143 884.325C705.179 883.499 701.065 877.478 698.09 874.164C696.775 872.726 695.416 871.327 694.051 869.928C692.318 868.15 690.61 866.363 688.951 864.529C687.671 863.113 686.355 861.743 684.985 860.397C683.242 858.684 681.6 856.913 679.971 855.114C678.063 853.033 676.093 851 674.13 848.961C672.978 847.764 671.828 846.565 670.678 845.366C670.453 845.131 670.227 844.896 669.995 844.653C668.281 842.864 666.579 841.066 664.879 839.265C663.355 837.651 661.82 836.045 660.281 834.441C658.329 832.407 656.388 830.366 654.456 828.317C652.914 826.683 651.358 825.061 649.799 823.44C648.215 821.793 646.653 820.135 645.124 818.447C642.788 815.874 640.35 813.384 637.918 810.884C636.941 809.879 635.967 808.873 634.997 807.864C634.537 807.386 634.074 806.909 633.611 806.434C632.603 805.393 631.681 804.374 630.817 803.231C628.888 800.69 627.31 799.96 623.95 799.317C618.593 798.285 614.441 795.463 610.419 792.263C610.018 791.948 609.617 791.634 609.203 791.309C603.556 786.783 597.864 782.041 593.202 776.679C592.345 775.7 591.448 774.76 590.535 773.823C587.988 771.197 585.692 768.443 583.45 765.605C582.407 764.286 581.372 763.002 580.178 761.789C577.156 758.405 575.977 753.601 575.957 749.347C575.911 746.81 575.71 745.012 573.703 743.064C572.951 742.427 572.195 741.793 571.437 741.163C570.772 740.463 570.12 739.753 569.482 739.033C567.924 737.312 566.336 735.618 564.722 733.939C564.494 733.701 564.265 733.463 564.03 733.218C563.326 732.486 562.622 731.755 561.918 731.024C560.982 730.052 560.047 729.081 559.113 728.109C558.886 727.873 558.659 727.636 558.426 727.393C557.044 725.95 555.69 724.49 554.353 723.014C552.742 721.237 551.053 719.539 549.332 717.848C548.318 716.828 547.352 715.785 546.393 714.725C544.507 712.641 542.554 710.614 540.586 708.592C538.779 706.734 536.992 704.862 535.218 702.979C533.916 701.596 532.604 700.221 531.285 698.851C522.651 689.874 514.597 680.464 507.976 670.19C507.805 669.924 507.633 669.658 507.456 669.385C505.057 665.662 502.823 661.888 500.724 658.023C500.328 658.709 500.328 658.709 499.924 659.409C495.383 667.229 490.6 674.781 484.859 681.951C484.596 682.28 484.332 682.61 484.061 682.95C481.08 686.667 478.021 690.289 474.669 693.745C473.563 694.891 472.493 696.058 471.43 697.235C469.808 699.02 468.111 700.727 466.38 702.427C465.367 703.446 464.4 704.489 463.441 705.549C461.807 707.355 460.13 709.12 458.427 710.872C458.177 711.129 457.927 711.386 457.67 711.651C457.162 712.172 456.655 712.694 456.147 713.216C453.333 716.113 450.532 719.018 447.831 722C446.219 723.777 444.531 725.474 442.809 727.166C441.796 728.185 440.829 729.228 439.87 730.288C438.228 732.103 436.54 733.876 434.827 735.637C434.579 735.893 434.331 736.149 434.076 736.412C432.836 737.691 431.592 738.965 430.339 740.233C429.88 740.703 429.421 741.174 428.963 741.644C428.748 741.858 428.533 742.073 428.311 742.293C427.097 743.55 426.838 743.886 426.838 745.624C427.566 746.411 427.566 746.411 428.566 747.17C436.794 754.265 441.049 763.378 441.889 773.501C442.118 784.789 437.369 794.255 428.793 802.427C421.747 808.499 411.724 812.574 401.907 812.947C401.534 812.963 401.162 812.979 400.778 812.996C390.461 813.223 380.614 810.102 372.637 804.317C371.577 803.501 371.577 803.501 370.177 803.619C369.299 804.427 368.507 805.232 367.712 806.103C367.224 806.626 366.735 807.149 366.246 807.673C365.996 807.942 365.747 808.212 365.489 808.49C364.545 809.503 363.584 810.502 362.62 811.5C360.812 813.372 359.028 815.258 357.287 817.18C354.95 819.753 352.511 822.244 350.078 824.744C347.264 827.642 344.463 830.546 341.762 833.529C340.15 835.306 338.462 837.003 336.74 838.695C335.727 839.714 334.76 840.757 333.801 841.817C331.437 844.428 328.969 846.953 326.503 849.487C322.055 854.07 317.62 858.673 313.346 863.388C310.998 865.968 308.551 868.469 306.109 870.978C304.91 872.213 303.716 873.452 302.524 874.693C302.299 874.926 302.073 875.16 301.841 875.4C300.445 876.853 299.128 878.346 297.821 879.864C295.455 882.414 293.25 884.181 289.464 884.555C285.93 884.753 282.935 884.548 279.982 882.639C276.924 880.141 275.461 877.644 275.213 873.933C275.337 869.223 278.387 866.034 281.884 862.799C283.036 861.732 284.09 860.616 285.129 859.459C286.75 857.659 288.419 855.904 290.115 854.162C292.178 852.043 294.223 849.912 296.247 847.763C297.78 846.136 299.329 844.52 300.881 842.907C302.504 841.219 304.102 839.518 305.669 837.787C307.28 836.01 308.969 834.313 310.69 832.621C312.06 831.244 313.347 829.811 314.642 828.378C316.225 826.662 317.862 824.989 319.497 823.312C320.971 821.796 322.415 820.263 323.829 818.7C325.429 816.931 327.109 815.243 328.822 813.56C330.191 812.182 331.478 810.75 332.774 809.317C334.109 807.869 335.481 806.453 336.861 805.038C338.553 803.302 340.226 801.557 341.847 799.766C343.489 797.952 345.18 796.18 346.89 794.418C347.142 794.156 347.395 793.895 347.655 793.626C348.712 792.535 349.775 791.456 350.877 790.4C351.169 790.12 351.461 789.84 351.762 789.551C352.132 789.21 352.132 789.21 352.51 788.862C353.049 788.221 353.049 788.221 352.825 787.429C352.272 785.997 350.977 785.062 349.794 784.019C349.366 783.634 349.366 783.634 348.929 783.242C347.969 782.381 347.004 781.524 346.039 780.668C345.351 780.052 344.664 779.437 343.976 778.821C342.106 777.148 340.232 775.478 338.357 773.809C336.399 772.065 334.446 770.318 332.491 768.571C328.789 765.262 325.083 761.956 321.376 758.651C317.156 754.89 312.94 751.124 308.725 747.359C300.052 739.612 291.374 731.869 282.693 724.129C280.591 724.814 279.236 725.816 277.65 727.196C275.831 728.741 274.001 730.23 272.04 731.632C270.152 732.988 268.367 734.41 266.601 735.89C264.835 737.37 263.05 738.793 261.162 740.149C258.712 741.908 256.425 743.8 254.129 745.716C252.041 747.457 249.883 749.121 247.71 750.776C247.17 751.187 246.63 751.599 246.09 752.011C245.816 752.22 245.543 752.429 245.261 752.644C243.472 754.015 241.724 755.418 239.999 756.853C238.355 758.219 236.678 759.526 234.928 760.781C232.643 762.425 230.517 764.188 228.385 765.984C226.439 767.615 224.417 769.126 222.335 770.616C220.509 771.981 218.791 773.441 217.06 774.901C215.042 776.593 212.951 778.154 210.792 779.7C209.57 780.609 208.484 781.591 207.382 782.612C205.975 783.831 204.427 784.894 202.898 785.988C201.707 786.876 200.59 787.796 199.472 788.755C196.205 791.543 193.699 793.11 189.089 793.277C185.75 793.176 183.369 792.434 180.816 790.514C177.878 787.374 176.876 785.362 176.925 781.169C177.319 777.339 179.831 774.824 182.97 772.391C184.162 771.509 185.365 770.641 186.571 769.775C188.145 768.599 189.637 767.362 191.129 766.104C193.346 764.236 195.62 762.484 197.999 760.781C199.54 759.63 200.999 758.413 202.461 757.182C204.301 755.632 206.152 754.135 208.127 752.721C210.709 750.871 213.101 748.861 215.512 746.839C217.63 745.064 219.821 743.372 222.03 741.69C222.571 741.278 223.112 740.865 223.652 740.453C223.926 740.244 224.199 740.035 224.481 739.82C226.27 738.449 228.018 737.046 229.743 735.611C231.386 734.245 233.063 732.938 234.814 731.683C236.806 730.25 238.678 728.737 240.537 727.171C242.774 725.286 245.067 723.513 247.467 721.794C248.827 720.788 250.125 719.729 251.416 718.654C253.489 716.928 255.634 715.314 257.842 713.725C260.161 712 262.357 710.153 264.561 708.312C263.634 706.912 262.666 705.543 261.672 704.181C255.495 695.45 253.21 685.653 255.495 675.462C258.283 665.121 264.982 656.466 275.1 650.813C284.846 645.565 296.518 644.156 307.573 646.447C315.933 648.372 322.911 652.533 328.928 658.023C330.167 657.508 331.159 656.959 332.182 656.15C332.451 655.94 332.719 655.73 332.996 655.513C333.28 655.287 333.564 655.062 333.857 654.829C334.468 654.351 335.078 653.872 335.688 653.394C335.997 653.151 336.306 652.908 336.624 652.658C338.017 651.566 339.42 650.484 340.827 649.405C341.22 649.103 341.22 649.103 341.621 648.794C343.216 647.573 344.832 646.378 346.465 645.197C348.576 643.664 350.592 642.054 352.589 640.403C353.552 639.618 354.524 638.855 355.513 638.097C357.694 636.393 359.748 634.579 361.795 632.747C362.438 632.173 363.085 631.602 363.731 631.031C366.533 628.529 369.084 625.923 371.537 623.145C371.941 622.7 372.346 622.256 372.752 621.812C379.257 614.449 384.165 606.25 386.949 597.189C387.045 596.876 387.142 596.564 387.242 596.242C388.773 590.955 388.96 585.573 388.983 580.143C388.985 579.765 388.987 579.387 388.988 578.998C388.989 568.279 387.527 557.671 386.162 547.037C385.822 544.371 385.493 541.704 385.163 539.037C384.774 535.892 384.384 532.746 383.988 529.601C383.041 522.058 382.171 514.509 381.371 506.952C380.89 502.468 380.284 498.016 379.537 493.561C374.441 462.89 382.489 430.691 394.655 402.115C394.836 401.684 395.017 401.254 395.203 400.81C400.172 389.035 405.902 377.514 411.595 366.007C412.847 363.472 414.073 360.927 415.301 358.382C418.09 352.6 420.951 346.848 423.843 341.106C425.034 338.741 426.219 336.374 427.405 334.006C427.764 333.289 427.764 333.289 428.131 332.557C431.482 325.868 434.826 319.177 438.17 312.486C439.329 310.168 440.488 307.85 441.647 305.531C441.973 304.879 442.3 304.226 442.626 303.573C444.221 300.384 445.816 297.194 447.415 294.006C449.895 289.062 452.367 284.115 454.825 279.162C455.28 278.245 455.736 277.327 456.192 276.41C456.344 276.105 456.495 275.8 456.651 275.486C456.961 274.862 457.271 274.238 457.581 273.615C458.577 271.609 459.571 269.603 460.563 267.596C461.251 266.207 461.94 264.819 462.63 263.431C462.957 262.772 463.284 262.112 463.609 261.451C468.536 251.465 474.446 241.113 486.502 236.875C490.572 235.769 495.336 235.753 499.449 236.697Z" fill="#295C59"/>
<path d="M513.418 266.253C514.969 267.64 515.584 269.011 516.393 270.79C518.45 275.194 520.629 279.545 522.824 283.895C523.18 284.601 523.537 285.308 523.893 286.014C524.424 287.068 524.955 288.121 525.487 289.174C527 292.172 528.508 295.172 530.012 298.174C530.377 298.903 530.743 299.633 531.109 300.362C531.953 302.046 532.795 303.729 533.606 305.426C534.548 307.388 535.544 309.327 536.536 311.27C537.774 313.693 538.995 316.119 540.162 318.57C541.359 320.999 542.576 323.42 543.794 325.84C543.963 326.175 544.132 326.511 544.306 326.857C544.842 327.922 545.377 328.987 545.913 330.052C546.264 330.748 546.614 331.445 546.964 332.141C547.138 332.486 547.311 332.83 547.49 333.185C547.84 333.882 548.19 334.578 548.54 335.274C549.445 337.074 550.352 338.872 551.262 340.669C551.537 341.213 551.537 341.213 551.818 341.769C552.166 342.456 552.515 343.144 552.864 343.831C554.015 346.11 555.05 348.406 555.996 350.76C556.442 351.827 556.442 351.827 557.108 352.727C557.956 354.031 558.529 355.364 559.14 356.768C560.068 358.829 561.13 360.836 562.175 362.852C563.661 365.726 565.133 368.597 566.48 371.526C568.114 375.067 569.862 378.558 571.629 382.046C572.977 384.71 574.302 387.374 575.495 390.097C576.078 391.401 576.693 392.692 577.311 393.983C580.001 399.622 582.566 405.248 584.728 411.071C585.232 412.421 585.783 413.741 586.384 415.06C591.709 426.78 595.13 439.389 597.125 451.89C597.285 452.861 597.462 453.828 597.643 454.795C597.705 455.129 597.767 455.463 597.83 455.807C597.946 456.428 598.063 457.049 598.183 457.67C600.366 469.644 600.088 482.948 597.447 494.806C596.642 498.465 596.226 502.155 595.803 505.862C595.766 506.182 595.729 506.501 595.69 506.83C595.31 510.082 594.994 513.323 594.819 516.589C594.651 519.591 594.219 522.538 593.742 525.512C593.081 529.675 592.609 533.851 592.151 538.035C592.006 539.354 591.858 540.672 591.71 541.99C591.303 545.638 590.906 549.28 590.679 552.94C590.529 555.326 590.242 557.65 589.797 560.004C589.013 564.259 588.596 568.465 588.556 572.778C588.552 573.182 588.547 573.587 588.543 574.003C588.444 585.32 588.781 596.069 592.744 606.923C592.894 607.367 593.045 607.812 593.201 608.271C596.962 618.603 603.391 627.679 610.875 636.123C611.225 636.523 611.574 636.923 611.934 637.335C616.107 642.019 620.832 646.28 625.55 650.52C625.884 650.821 626.218 651.121 626.562 651.431C628.663 653.306 630.83 655.082 633.086 656.806C633.345 657.006 633.604 657.206 633.87 657.411C634.618 657.989 635.367 658.564 636.118 659.138C636.388 659.345 636.658 659.552 636.936 659.765C642.309 663.879 642.309 663.879 647.761 667.909C650.647 670.01 653.443 672.201 656.249 674.387C657.608 675.443 658.973 676.493 660.34 677.541C660.6 677.74 660.86 677.939 661.127 678.144C662.668 679.324 664.215 680.496 665.766 681.665C666.014 681.851 666.261 682.038 666.516 682.23C666.879 682.503 666.879 682.503 667.249 682.782C669.179 684.242 671.059 685.746 672.921 687.274C673.854 688.047 673.854 688.047 674.884 688.628C675.913 689.418 675.987 689.918 676.177 691.101C676.308 692.053 676.308 692.053 676.602 692.901C677.978 693.722 678.503 693.843 680.086 693.966C680.636 694.011 680.636 694.011 681.197 694.058C681.475 694.077 681.754 694.097 682.041 694.118C682.042 694.351 682.043 694.584 682.043 694.824C682.052 697.272 682.077 699.72 682.11 702.168C682.121 703.078 682.127 703.989 682.13 704.9C682.073 711.947 682.073 711.947 684.761 718.451C687.456 724.121 685.859 729.555 683.401 735.079C682.525 736.62 681.511 737.848 680.228 739.135C679.69 739.697 679.69 739.697 679.141 740.271C669.28 750.366 657.097 757.604 643.512 763.063C642.993 763.276 642.474 763.488 641.94 763.708C640.019 764.394 638.089 764.881 636.089 765.344C635.546 765.476 635.546 765.476 634.991 765.61C629.748 766.84 629.748 766.84 627.647 766.713C626.325 765.941 625.448 764.978 624.474 763.874C624.178 763.554 623.882 763.234 623.578 762.904C622.903 762.171 622.232 761.433 621.566 760.693C620.232 759.222 618.84 757.798 617.448 756.371C615.715 754.594 614.007 752.806 612.348 750.972C611.068 749.557 609.752 748.187 608.382 746.84C606.641 745.129 605 743.361 603.373 741.562C602.119 740.194 600.834 738.852 599.543 737.513C597.94 735.849 596.357 734.176 594.812 732.468C592.474 729.894 590.033 727.402 587.599 724.9C584.482 721.688 581.403 718.447 578.338 715.194C576.717 713.478 575.072 711.781 573.422 710.087C571.371 707.979 569.375 705.839 567.409 703.666C566.439 702.62 565.436 701.611 564.413 700.607C563.043 699.26 561.727 697.89 560.447 696.475C558.813 694.67 557.136 692.904 555.432 691.152C555.058 690.767 555.058 690.767 554.676 690.374C554.168 689.852 553.661 689.33 553.153 688.809C539.7 674.959 527.653 660.575 519.749 643.539C519.396 642.792 519.024 642.052 518.645 641.314C516.722 637.535 515.729 633.489 514.618 629.472C514.373 628.591 514.123 627.712 513.866 626.833C512.643 622.606 512.12 618.543 512.738 614.187C512.991 612.186 513.031 610.211 513.028 608.199C513.029 607.811 513.031 607.423 513.032 607.024C513.036 605.727 513.036 604.431 513.037 603.134C513.039 602.194 513.041 601.254 513.044 600.314C513.05 597.733 513.053 595.152 513.056 592.57C513.059 590.072 513.065 587.574 513.07 585.076C513.081 579.967 513.089 574.858 513.097 569.748C513.104 564.69 513.113 559.633 513.122 554.575C513.123 554.26 513.124 553.945 513.124 553.621C513.127 552.024 513.13 550.426 513.133 548.828C513.155 537.514 513.175 526.2 513.193 514.886C513.211 503.896 513.23 492.905 513.25 481.914C513.25 481.575 513.251 481.237 513.252 480.888C513.258 477.485 513.264 474.082 513.27 470.679C513.283 463.747 513.295 456.816 513.308 449.884C513.309 449.565 513.309 449.246 513.31 448.918C513.348 427.639 513.383 406.36 513.418 385.082C515.628 387.002 516.921 389.193 518.405 391.596C518.553 391.836 518.702 392.076 518.855 392.323C522.114 397.6 524.876 403.039 527.47 408.604C527.705 409.101 527.705 409.101 527.944 409.608C532.011 418.298 535 427.434 537.443 436.588C537.571 437.062 537.571 437.062 537.702 437.546C538.299 439.783 538.801 442.03 539.256 444.293C539.337 444.686 539.417 445.079 539.5 445.484C540.504 450.544 541.114 455.501 541.188 460.636C541.194 461.033 541.2 461.431 541.206 461.84C541.232 463.825 541.237 465.809 541.214 467.794C541.156 473.308 541.156 473.308 544.242 477.955C545.263 478.874 545.263 478.874 546.338 479.399C546.671 479.584 547.005 479.769 547.348 479.959C550.052 481.151 553.379 481.24 556.258 480.502C559.937 479.118 562.106 477.432 563.712 474.165C564.637 471.277 564.466 468.301 564.407 465.318C564.385 464.179 564.38 463.041 564.377 461.902C564.333 455.555 563.797 449.331 562.301 443.119C561.914 441.488 561.617 439.847 561.317 438.202C559.679 429.314 556.969 420.783 553.761 412.254C553.546 411.679 553.546 411.679 553.326 411.092C552.009 407.589 550.688 404.122 548.887 400.79C548.298 399.635 547.802 398.469 547.311 397.278C546.049 394.321 544.572 391.475 543.024 388.63C542.885 388.374 542.746 388.117 542.603 387.853C540.345 383.695 537.942 379.66 535.176 375.754C534.975 375.466 534.773 375.177 534.566 374.881C525.822 361.674 525.822 361.674 513.418 351.826C513.418 323.587 513.418 295.348 513.418 266.253Z" fill="#FEFEFE"/>
<path d="M487.58 265.847C487.73 265.847 487.879 265.847 488.033 265.847C488.235 276.871 488.387 287.895 488.479 298.92C488.524 304.04 488.584 309.159 488.683 314.278C488.769 318.743 488.824 323.208 488.844 327.673C488.855 330.036 488.881 332.396 488.944 334.758C489.362 351.057 489.362 351.057 485.03 355.345C483.581 356.517 482.078 357.52 480.442 358.472C478.857 359.487 477.756 360.769 476.616 362.168C476.421 362.399 476.227 362.631 476.026 362.869C475.49 363.51 474.962 364.157 474.435 364.804C473.998 365.312 473.998 365.312 473.553 365.83C467.429 373.075 462.613 381.019 458.116 389.137C457.894 389.537 457.672 389.936 457.443 390.348C455.108 394.565 452.996 398.789 451.237 403.223C450.808 404.281 450.357 405.33 449.904 406.38C446.529 414.221 443.84 422.103 441.685 430.276C441.609 430.563 441.533 430.849 441.455 431.144C440.38 435.237 439.443 439.342 438.625 443.482C438.548 443.869 438.471 444.256 438.392 444.654C437.251 450.738 437.131 456.796 437.123 462.949C437.122 463.343 437.12 463.737 437.119 464.142C437.116 465.282 437.121 466.422 437.129 467.562C437.128 468.071 437.128 468.071 437.128 468.591C437.176 472.276 437.69 475.511 440.728 478.21C443.479 480.43 445.746 480.99 449.444 480.917C453.112 480.598 455.55 479.364 457.902 476.857C459.749 474.284 460.126 472.221 460.114 469.221C460.123 468.463 460.132 467.704 460.141 466.946C460.144 466.357 460.144 466.357 460.148 465.757C460.191 459.518 460.286 453.359 461.56 447.207C461.746 446.304 461.91 445.399 462.07 444.491C462.721 440.879 463.618 437.349 464.664 433.812C464.849 433.17 465.025 432.525 465.197 431.88C466.039 428.747 467.076 425.684 468.19 422.622C468.484 421.813 468.774 421.003 469.064 420.193C470.277 416.826 471.602 413.51 473.075 410.226C473.343 409.627 473.343 409.627 473.616 409.016C475.057 405.859 476.658 402.777 478.316 399.707C478.452 399.454 478.588 399.202 478.728 398.941C480.618 395.444 482.596 392.006 484.747 388.63C484.974 388.273 485.201 387.916 485.435 387.548C487.006 385.136 487.006 385.136 488.033 384.676C488.1 407.304 488.165 429.931 488.22 452.559C488.222 453.061 488.222 453.061 488.223 453.574C488.241 460.853 488.259 468.132 488.276 475.411C488.284 478.981 488.293 482.551 488.302 486.12C488.302 486.476 488.303 486.831 488.304 487.197C488.332 498.709 488.364 510.222 488.399 521.734C488.434 533.566 488.465 545.397 488.49 557.228C488.494 558.9 488.498 560.571 488.501 562.242C488.502 562.736 488.502 562.736 488.503 563.239C488.515 568.533 488.532 573.826 488.55 579.12C488.568 584.443 488.581 589.765 488.589 595.088C488.594 598.25 488.603 601.412 488.617 604.573C488.628 606.936 488.631 609.298 488.631 611.66C488.632 612.615 488.636 613.57 488.642 614.524C488.697 623.503 488.697 623.503 487.127 627.606C487 628.063 486.874 628.519 486.744 628.989C486.597 629.522 486.597 629.522 486.447 630.065C486.349 630.421 486.25 630.777 486.149 631.144C486.023 631.582 485.897 632.021 485.767 632.473C485.677 632.794 485.587 633.116 485.494 633.447C484.666 636.305 483.579 639.016 482.339 641.75C482.14 642.19 481.941 642.63 481.736 643.083C475.341 657.049 466.398 669.674 455.312 681.04C454.147 682.235 453.025 683.456 451.912 684.689C450.294 686.473 448.597 688.176 446.867 689.874C445.892 690.858 444.974 691.868 444.064 692.901C442.84 694.292 441.573 695.623 440.24 696.931C438.486 698.653 436.835 700.431 435.197 702.24C433.289 704.322 431.318 706.355 429.354 708.394C428.212 709.582 427.072 710.772 425.933 711.962C424.559 713.398 423.184 714.832 421.805 716.264C419.405 718.758 417.032 721.268 414.712 723.823C412.881 725.832 411.019 727.818 409.161 729.807C407.359 729.157 406.149 728.034 404.807 726.82C404.555 726.596 404.304 726.371 404.045 726.14C403.203 725.388 402.364 724.633 401.525 723.878C400.922 723.338 400.319 722.799 399.715 722.259C398.077 720.794 396.442 719.326 394.807 717.858C393.099 716.324 391.388 714.793 389.677 713.261C386.437 710.36 383.199 707.457 379.963 704.553C376.278 701.247 372.591 697.943 368.903 694.64C361.317 687.844 353.735 681.046 346.154 674.245C346.927 672.749 347.753 672.022 349.214 671.001C351.253 669.549 353.249 668.065 355.22 666.54C357.125 665.07 359.044 663.622 360.999 662.205C362.97 660.774 364.868 659.286 366.742 657.754C367.692 656.985 368.652 656.23 369.619 655.479C371.596 653.934 373.512 652.336 375.42 650.723C375.744 650.45 376.069 650.177 376.403 649.896C379.271 647.477 382.088 645.043 384.657 642.366C385.362 641.633 386.075 640.906 386.793 640.183C395.724 631.123 402.574 621.051 407.348 609.762C407.459 609.516 407.57 609.27 407.684 609.017C408.678 606.771 409.301 604.486 409.898 602.132C410.092 601.377 410.287 600.623 410.482 599.868C410.566 599.538 410.65 599.209 410.736 598.869C410.974 598 410.974 598 411.428 596.784C411.566 595.53 411.658 594.275 411.753 593.018C411.881 591.917 411.881 591.917 412.334 591.106C414.787 571.221 410.697 550.805 408.234 531.054C407.521 525.33 406.82 519.608 406.206 513.875C406.129 513.157 406.129 513.157 406.05 512.425C405.818 510.24 405.59 508.054 405.369 505.868C404.974 502.033 404.436 498.297 403.596 494.52C402.467 489.143 402.21 483.82 402.249 478.36C402.25 478.012 402.251 477.664 402.252 477.306C402.303 465.136 403.365 453.386 406.243 441.48C406.313 441.191 406.383 440.903 406.454 440.605C406.656 439.777 406.86 438.95 407.067 438.123C407.186 437.641 407.306 437.16 407.429 436.664C407.764 435.499 408.197 434.452 408.708 433.343C408.896 432.746 409.069 432.146 409.229 431.542C409.318 431.208 409.408 430.873 409.501 430.529C409.595 430.178 409.688 429.827 409.784 429.465C410.503 426.84 411.261 424.261 412.262 421.709C412.697 420.597 413.115 419.482 413.526 418.363C415.329 413.451 417.178 408.595 419.574 403.885C420.138 402.724 420.642 401.548 421.145 400.366C422.614 396.915 424.179 393.52 425.933 390.176C426.791 388.53 427.578 386.886 428.284 385.183C429.434 382.446 430.738 379.774 432.052 377.097C432.262 376.668 432.472 376.24 432.688 375.798C433.837 373.471 435.048 371.187 436.334 368.919C436.907 367.874 437.369 366.813 437.803 365.716C438.874 363.156 440.107 360.675 441.373 358.188C441.565 357.81 441.757 357.433 441.955 357.044C442.776 355.442 443.605 353.852 444.516 352.29C445.273 350.955 445.87 349.593 446.456 348.192C447.706 345.229 449.163 342.369 450.651 339.497C451.456 337.943 452.256 336.386 453.056 334.829C453.216 334.517 453.376 334.206 453.541 333.885C455.272 330.512 456.952 327.12 458.617 323.722C459.549 321.829 460.502 319.958 461.553 318.115C462.449 316.535 463.197 314.939 463.915 313.289C465.204 310.443 466.653 307.657 468.06 304.857C468.404 304.172 468.748 303.487 469.091 302.802C469.612 301.762 470.134 300.723 470.656 299.684C471.743 297.52 472.826 295.353 473.905 293.186C474.298 292.398 474.691 291.61 475.085 290.821C475.443 290.103 475.8 289.384 476.157 288.665C477.143 286.692 478.145 284.736 479.244 282.811C480.167 281.183 480.947 279.532 481.687 277.831C482.483 276.016 483.35 274.229 484.209 272.438C484.384 272.07 484.559 271.702 484.739 271.324C485.628 269.468 486.541 267.64 487.58 265.847Z" fill="#FEFEFE"/>
<path d="M600.9 115.385C613.316 115.385 625.731 115.385 638.523 115.385C638.487 120.751 638.487 120.751 638.45 126.227C638.377 137.692 638.34 149.157 638.326 160.622C638.324 162.405 638.321 164.188 638.319 165.971C638.318 166.325 638.317 166.68 638.317 167.046C638.307 172.782 638.272 178.519 638.227 184.255C638.182 190.147 638.164 196.038 638.172 201.93C638.176 205.563 638.159 209.194 638.114 212.826C638.085 215.321 638.083 217.815 638.102 220.31C638.112 221.747 638.111 223.183 638.077 224.62C637.8 231.646 637.8 231.646 641.477 237.57C642.699 238.592 643.977 239.519 645.308 240.426C646.586 241.372 647.624 242.457 648.684 243.595C649.927 244.907 651.307 246.098 652.674 247.305C652.974 247.572 653.274 247.839 653.583 248.114C654.53 248.956 655.479 249.798 656.428 250.639C657.681 251.748 658.932 252.86 660.182 253.972C660.463 254.22 660.744 254.468 661.033 254.724C662.712 256.217 664.285 257.765 665.833 259.368C667.127 260.674 668.511 261.896 669.899 263.122C670.199 263.389 670.499 263.656 670.808 263.931C671.755 264.773 672.704 265.614 673.653 266.455C674.906 267.565 676.157 268.676 677.407 269.789C677.688 270.037 677.969 270.285 678.258 270.54C679.647 271.776 680.979 273.032 682.259 274.358C683.835 275.99 685.508 277.513 687.223 279.028C687.533 279.303 687.843 279.579 688.163 279.863C689.142 280.735 690.123 281.605 691.105 282.475C692.4 283.623 693.693 284.772 694.986 285.922C695.277 286.179 695.568 286.436 695.868 286.701C697.571 288.216 699.17 289.784 700.74 291.41C702.032 292.716 703.415 293.937 704.802 295.161C705.102 295.428 705.402 295.695 705.711 295.97C706.658 296.812 707.607 297.654 708.556 298.495C709.809 299.604 711.06 300.716 712.31 301.828C712.591 302.076 712.872 302.324 713.162 302.58C714.55 303.815 715.882 305.071 717.162 306.397C718.738 308.029 720.411 309.552 722.126 311.067C722.436 311.343 722.746 311.618 723.066 311.903C724.045 312.774 725.026 313.644 726.008 314.514C727.303 315.662 728.596 316.811 729.889 317.961C730.18 318.218 730.471 318.475 730.771 318.74C732.474 320.256 734.073 321.823 735.643 323.449C736.936 324.755 738.318 325.976 739.705 327.201C740.005 327.467 740.305 327.734 740.614 328.009C741.561 328.852 742.51 329.693 743.459 330.534C744.712 331.644 745.963 332.755 747.213 333.867C747.494 334.115 747.775 334.363 748.065 334.619C749.447 335.849 750.774 337.099 752.047 338.42C753.72 340.152 755.508 341.763 757.327 343.372C757.667 343.675 758.007 343.978 758.358 344.29C759.434 345.248 760.512 346.205 761.591 347.162C763.013 348.424 764.434 349.687 765.854 350.951C766.175 351.235 766.496 351.518 766.826 351.81C768.604 353.393 770.285 355.021 771.922 356.72C773.177 357.991 774.52 359.177 775.869 360.368C776.304 360.754 776.304 360.754 776.748 361.149C777.662 361.963 778.579 362.775 779.496 363.587C780.706 364.659 781.914 365.732 783.122 366.806C783.393 367.045 783.664 367.284 783.943 367.531C785.301 368.738 786.6 369.968 787.85 371.265C789.526 372.999 791.315 374.612 793.137 376.223C793.477 376.525 793.817 376.828 794.167 377.14C795.244 378.098 796.322 379.055 797.4 380.012C798.823 381.274 800.244 382.537 801.664 383.801C801.985 384.085 802.306 384.369 802.636 384.661C804.409 386.239 806.084 387.863 807.718 389.557C809.05 390.904 810.479 392.161 811.909 393.424C812.221 393.702 812.533 393.979 812.855 394.265C813.841 395.142 814.828 396.018 815.815 396.893C817.121 398.051 818.425 399.21 819.728 400.369C820.024 400.63 820.32 400.891 820.624 401.16C825.179 405.214 825.179 405.214 825.441 406.679C825.383 406.958 825.325 407.237 825.265 407.525C825.172 407.994 825.172 407.994 825.076 408.472C824.676 409.971 824.221 411.43 823.663 412.888C823.485 413.355 823.485 413.355 823.304 413.831C822.437 416.036 821.437 418.163 820.291 420.264C820.152 420.524 820.013 420.785 819.869 421.054C818.802 422.926 817.481 424.21 815.759 425.637C814.212 425.04 813.207 424.266 812.022 423.203C811.641 422.863 811.261 422.524 810.868 422.174C810.248 421.614 810.248 421.614 809.615 421.044C809.172 420.647 808.728 420.251 808.285 419.854C807.082 418.778 805.882 417.7 804.683 416.621C803.426 415.492 802.167 414.365 800.908 413.237C798.521 411.1 796.137 408.96 793.754 406.82C791.05 404.391 788.344 401.965 785.637 399.54C781.008 395.391 776.38 391.24 771.755 387.087C771.182 386.573 771.182 386.573 770.598 386.048C770.268 385.752 769.938 385.456 769.598 385.151C768.912 384.535 768.223 383.923 767.532 383.312C766.448 382.331 765.398 381.33 764.355 380.315C760.024 376.107 755.498 372.076 750.97 368.037C750.077 367.238 749.183 366.44 748.29 365.641C746.38 363.933 744.469 362.225 742.557 360.518C739.789 358.047 737.023 355.575 734.258 353.102C729.764 349.084 725.269 345.067 720.773 341.05C720.371 340.691 720.371 340.691 719.961 340.325C718.057 338.624 716.154 336.924 714.251 335.223C712.071 333.275 709.891 331.328 707.711 329.38C707.308 329.02 707.308 329.02 706.897 328.653C702.412 324.646 697.929 320.639 693.446 316.63C690.687 314.164 687.928 311.699 685.168 309.234C683.278 307.547 681.389 305.859 679.501 304.17C678.413 303.198 677.325 302.226 676.236 301.254C675.053 300.199 673.872 299.142 672.691 298.086C672.35 297.782 672.009 297.479 671.658 297.166C670.163 295.825 668.709 294.473 667.328 293.038C665.513 291.156 663.559 289.41 661.592 287.657C661.186 287.294 660.78 286.931 660.362 286.557C659.244 285.557 658.125 284.558 657.006 283.559C655.796 282.479 654.587 281.398 653.378 280.317C651.285 278.445 649.192 276.575 647.098 274.705C644.066 271.998 641.036 269.289 638.007 266.581C633.086 262.181 628.165 257.782 623.243 253.384C622.948 253.121 622.654 252.858 622.351 252.587C620.263 250.721 618.174 248.855 616.086 246.989C613.7 244.857 611.314 242.725 608.928 240.593C608.634 240.331 608.341 240.068 608.038 239.797C603.133 235.415 598.23 231.032 593.327 226.648C590.306 223.947 587.284 221.246 584.261 218.547C582.19 216.697 580.119 214.846 578.049 212.995C576.855 211.928 575.662 210.861 574.467 209.795C573.17 208.638 571.875 207.479 570.579 206.32C570.205 205.986 569.83 205.652 569.444 205.308C567.548 203.609 565.733 201.877 563.983 200.058C563.016 199.067 561.992 198.135 560.951 197.205C560.74 197.015 560.528 196.826 560.309 196.63C559.612 196.006 558.914 195.383 558.215 194.76C557.71 194.308 557.205 193.856 556.7 193.404C555.339 192.186 553.976 190.969 552.613 189.752C551.185 188.477 549.758 187.201 548.331 185.925C545.634 183.513 542.935 181.101 540.236 178.691C537.161 175.944 534.088 173.197 531.014 170.449C524.696 164.8 518.377 159.153 512.056 153.507C510.778 154.028 509.85 154.569 508.862 155.459C508.471 155.808 508.471 155.808 508.073 156.163C507.793 156.418 507.512 156.672 507.224 156.934C506.924 157.203 506.625 157.471 506.316 157.748C505.326 158.636 504.339 159.528 503.352 160.419C502.662 161.039 501.972 161.658 501.282 162.277C499.463 163.91 497.647 165.545 495.831 167.181C492.932 169.792 490.03 172.4 487.127 175.007C486.117 175.915 485.108 176.825 484.099 177.734C483.473 178.298 482.847 178.861 482.22 179.424C481.944 179.674 481.667 179.924 481.382 180.182C480.045 181.381 478.687 182.532 477.25 183.635C474.899 185.455 472.725 187.43 470.533 189.401C470.061 189.825 469.588 190.248 469.116 190.672C468.105 191.577 467.095 192.484 466.085 193.391C464.485 194.827 462.884 196.262 461.283 197.697C457.883 200.743 454.486 203.79 451.089 206.838C447.42 210.129 443.751 213.42 440.08 216.709C438.491 218.133 436.903 219.558 435.316 220.983C434.326 221.873 433.334 222.761 432.343 223.649C431.886 224.058 431.43 224.468 430.974 224.878C428.76 226.869 426.528 228.801 424.146 230.63C422.15 232.221 420.29 233.94 418.405 235.635C417.933 236.059 417.46 236.482 416.988 236.905C415.977 237.811 414.967 238.718 413.957 239.624C412.357 241.061 410.756 242.496 409.155 243.931C405.755 246.977 402.358 250.024 398.961 253.072C395.292 256.363 391.623 259.654 387.952 262.943C386.363 264.367 384.775 265.792 383.188 267.217C382.198 268.106 381.206 268.995 380.215 269.883C379.758 270.292 379.302 270.702 378.846 271.111C376.632 273.103 374.4 275.034 372.018 276.864C370.022 278.454 368.161 280.174 366.277 281.869C365.805 282.292 365.332 282.716 364.86 283.139C363.849 284.045 362.839 284.951 361.829 285.858C360.229 287.295 358.628 288.73 357.027 290.165C353.627 293.21 350.23 296.258 346.833 299.306C343.164 302.597 339.495 305.888 335.824 309.177C334.235 310.601 332.647 312.025 331.06 313.451C330.07 314.34 329.078 315.229 328.086 316.117C327.63 316.526 327.174 316.935 326.718 317.345C324.504 319.337 322.272 321.268 319.89 323.098C317.894 324.688 316.033 326.408 314.149 328.103C313.677 328.526 313.204 328.95 312.732 329.373C311.721 330.279 310.711 331.185 309.701 332.092C308.101 333.529 306.5 334.964 304.899 336.398C301.499 339.444 298.102 342.492 294.705 345.539C291.036 348.831 287.367 352.122 283.696 355.411C282.107 356.834 280.519 358.259 278.932 359.685C277.942 360.574 276.95 361.462 275.958 362.35C275.502 362.76 275.046 363.169 274.59 363.579C272.376 365.571 270.144 367.502 267.762 369.332C265.766 370.922 263.905 372.642 262.021 374.337C261.549 374.76 261.076 375.183 260.604 375.607C259.593 376.512 258.582 377.419 257.573 378.326C255.973 379.762 254.372 381.197 252.771 382.632C249.371 385.678 245.974 388.725 242.577 391.773C238.908 395.064 235.239 398.355 231.568 401.644C229.979 403.068 228.391 404.493 226.804 405.919C225.813 406.808 224.822 407.696 223.83 408.584C223.374 408.993 222.918 409.403 222.462 409.813C220.194 411.853 217.915 413.85 215.466 415.716C214.206 416.692 213.038 417.746 211.867 418.805C211.497 419.136 211.497 419.136 211.12 419.474C210.348 420.168 209.577 420.862 208.807 421.556C208.278 422.032 207.748 422.508 207.219 422.983C205.934 424.137 204.65 425.292 203.367 426.449C201.853 425.894 201.264 425.419 200.565 424.101C200.398 423.789 200.231 423.477 200.059 423.156C199.889 422.821 199.718 422.485 199.543 422.139C199.364 421.794 199.186 421.448 199.002 421.091C195.095 413.346 193.317 405.201 193.31 396.716C193.305 396.326 193.299 395.935 193.293 395.533C193.284 391.335 193.284 391.335 194.96 389.719C195.844 388.945 196.753 388.204 197.673 387.464C201.085 384.662 204.38 381.774 207.629 378.82C209.174 377.423 210.721 376.058 212.389 374.779C214.72 372.987 216.85 371.019 219.006 369.062C221.428 366.863 223.847 364.709 226.468 362.7C228.372 361.183 230.136 359.533 231.925 357.909C234.283 355.767 236.644 353.677 239.195 351.719C240.852 350.405 242.386 348.98 243.937 347.567C245.758 345.908 247.571 344.265 249.546 342.751C251.88 340.954 254.015 338.983 256.175 337.023C258.607 334.816 261.035 332.652 263.666 330.636C265.404 329.256 267.013 327.757 268.641 326.275C270.847 324.268 273.07 322.328 275.456 320.493C277.034 319.241 278.497 317.888 279.973 316.542C281.719 314.949 283.462 313.382 285.356 311.929C287.608 310.193 289.673 308.297 291.758 306.403C294.116 304.261 296.478 302.171 299.029 300.213C300.686 298.899 302.22 297.474 303.771 296.061C305.893 294.127 308.04 292.269 310.337 290.501C312 289.178 313.544 287.748 315.103 286.328C316.929 284.664 318.747 283.018 320.726 281.499C322.975 279.768 325.034 277.876 327.115 275.986C329.473 273.844 331.834 271.754 334.385 269.796C336.042 268.482 337.576 267.057 339.127 265.644C341.25 263.71 343.397 261.852 345.693 260.084C347.356 258.761 348.9 257.331 350.459 255.911C352.285 254.247 354.103 252.601 356.083 251.082C358.331 249.351 360.391 247.459 362.471 245.569C364.829 243.427 367.19 241.337 369.742 239.38C371.398 238.066 372.933 236.64 374.483 235.227C376.606 233.293 378.753 231.435 381.05 229.668C382.713 228.344 384.257 226.914 385.816 225.494C387.646 223.826 389.47 222.176 391.453 220.653C393.616 218.987 395.601 217.173 397.601 215.355C399.881 213.282 402.17 211.269 404.637 209.375C406.296 208.058 407.833 206.631 409.387 205.216C411.222 203.544 413.051 201.89 415.038 200.362C417.116 198.763 419.025 197.027 420.945 195.28C423.147 193.277 425.365 191.341 427.746 189.51C429.407 188.19 430.948 186.761 432.504 185.344C434.34 183.671 436.168 182.018 438.156 180.489C440.234 178.89 442.143 177.155 444.063 175.407C446.26 173.408 448.473 171.478 450.85 169.65C452.594 168.261 454.212 166.757 455.848 165.268C458.054 163.261 460.277 161.321 462.664 159.486C464.241 158.234 465.705 156.881 467.181 155.535C468.936 153.934 470.69 152.359 472.592 150.896C474.673 149.292 476.588 147.553 478.513 145.801C480.71 143.802 482.923 141.872 485.3 140.044C487.044 138.655 488.662 137.151 490.298 135.662C492.504 133.655 494.727 131.715 497.114 129.88C498.691 128.628 500.155 127.275 501.63 125.929C503.721 124.022 505.839 122.187 508.107 120.449C509.014 119.744 509.864 118.999 510.696 118.223C512.207 118.674 512.523 119.01 513.511 120.081C515.152 121.81 516.896 123.411 518.7 125.004C519.02 125.289 519.34 125.573 519.669 125.867C520.681 126.767 521.695 127.666 522.708 128.565C524.046 129.751 525.382 130.938 526.717 132.127C527.018 132.392 527.319 132.658 527.629 132.932C529.057 134.203 530.434 135.491 531.749 136.857C533.483 138.655 535.349 140.318 537.24 141.984C537.973 142.635 538.707 143.286 539.44 143.937C540.586 144.952 541.733 145.967 542.881 146.981C543.996 147.966 545.109 148.954 546.221 149.943C546.568 150.248 546.915 150.553 547.272 150.867C547.589 151.149 547.905 151.43 548.231 151.721C548.512 151.968 548.792 152.216 549.081 152.472C549.679 153.102 549.679 153.102 549.679 153.913C549.978 153.913 550.277 153.913 550.586 153.913C551.253 154.519 551.253 154.519 552.024 155.35C553.612 157.02 555.288 158.571 557.031 160.11C557.481 160.51 557.481 160.51 557.939 160.919C558.887 161.761 559.835 162.602 560.784 163.443C562.037 164.553 563.288 165.664 564.538 166.776C564.819 167.025 565.1 167.273 565.39 167.528C566.776 168.762 568.107 170.016 569.385 171.341C570.993 173.006 572.704 174.558 574.454 176.104C574.774 176.389 575.094 176.674 575.424 176.967C576.436 177.868 577.449 178.767 578.463 179.666C579.8 180.852 581.136 182.039 582.471 183.227C582.772 183.493 583.073 183.759 583.383 184.033C583.817 184.418 583.817 184.418 584.259 184.812C584.508 185.033 584.757 185.254 585.014 185.481C586.428 186.816 587.761 188.218 589.115 189.602C592.855 192.948 596.594 196.294 600.447 199.741C600.597 171.903 600.746 144.066 600.9 115.385Z" fill="#295C59"/>
<path d="M693.374 656.806C694.272 656.806 695.169 656.806 696.094 656.806C695.795 657.074 695.496 657.341 695.188 657.617C695.051 658.651 695.051 658.651 695.077 659.872C695.076 660.348 695.075 660.824 695.073 661.314C695.077 661.835 695.08 662.356 695.083 662.893C695.083 663.439 695.083 663.985 695.083 664.531C695.083 665.996 695.09 667.461 695.098 668.926C695.103 669.832 695.106 670.737 695.109 671.643C695.121 675.215 695.143 678.788 695.174 682.36C695.186 683.834 695.197 685.309 695.207 686.783C695.222 688.719 695.247 690.654 695.283 692.59C695.295 693.266 695.304 693.943 695.31 694.619C695.319 695.54 695.34 696.46 695.365 697.381C695.374 697.882 695.384 698.384 695.393 698.9C695.687 700.446 696.237 701.119 697.454 702.229C698.604 702.889 698.604 702.889 699.834 703.369C700.238 703.539 700.642 703.709 701.059 703.884C701.518 704.069 701.518 704.069 701.987 704.257C701.987 704.524 701.987 704.792 701.987 705.068C702.436 705.202 702.884 705.335 703.347 705.473C704.039 706.202 704.695 706.96 705.33 707.729C705.734 708.212 706.139 708.694 706.545 709.176C706.76 709.431 706.975 709.687 707.197 709.95C708.374 711.321 709.601 712.654 710.826 713.99C713.383 716.788 715.859 719.631 718.305 722.507C721.67 726.457 725.047 730.394 728.759 734.091C730.91 736.234 732.887 738.493 734.882 740.752C735.671 741.643 736.465 742.531 737.258 743.418C737.514 743.709 737.769 743.999 738.032 744.298C738.275 744.569 738.518 744.839 738.769 745.118C738.985 745.362 739.202 745.606 739.425 745.857C740.087 746.544 740.087 746.544 741.423 746.84C741.229 744.669 740.792 743.528 739.185 741.898C738.821 741.52 738.458 741.143 738.083 740.754C737.493 740.153 737.493 740.153 736.89 739.54C736.044 738.658 735.206 737.769 734.369 736.879C733.985 736.477 733.601 736.075 733.205 735.661C732.357 734.674 732.357 734.674 732.357 733.862C732.058 733.862 731.759 733.862 731.451 733.862C730.76 733.175 730.76 733.175 729.921 732.189C728.395 730.437 726.817 728.745 725.189 727.069C723.115 724.924 721.125 722.732 719.18 720.493C717.949 719.075 716.696 717.679 715.415 716.297C713.654 714.376 711.933 712.43 710.231 710.467C709.981 710.182 709.731 709.898 709.473 709.605C704.9 704.292 704.106 699.105 703.896 692.54C703.855 691.367 703.768 690.278 703.573 689.115C703.223 686.819 703.235 684.518 703.177 682.204C703.043 677.804 702.681 673.488 701.994 669.129C701.587 666.49 701.459 663.931 701.534 661.267C703.052 661.753 704.128 662.219 705.266 663.243C705.524 663.473 705.782 663.704 706.048 663.942C706.316 664.188 706.584 664.435 706.86 664.689C707.281 665.072 707.281 665.072 707.711 665.463C709.665 667.26 711.485 669.124 713.225 671.091C714.36 672.369 715.535 673.612 716.719 674.854C718.555 676.787 720.365 678.738 722.156 680.706C723.569 682.256 724.988 683.802 726.408 685.347C726.679 685.643 726.95 685.938 727.229 686.242C728.715 687.857 730.217 689.457 731.744 691.041C736.614 696.114 738.181 700.384 738.824 707.037C739.074 709.462 739.448 710.808 741.536 712.368C741.858 712.611 742.179 712.855 742.51 713.106C743.094 713.544 743.094 713.544 743.689 713.99C744.73 714.782 745.768 715.577 746.806 716.373C747.081 716.583 747.357 716.794 747.641 717.011C749.244 718.239 750.826 719.486 752.387 720.758C753.869 721.963 755.385 723.109 756.948 724.23C759.248 725.893 761.395 727.671 763.546 729.482C765.501 731.12 767.531 732.641 769.622 734.14C771.629 735.631 773.519 737.23 775.426 738.821C777.514 740.562 779.672 742.226 781.845 743.881C782.385 744.293 782.925 744.705 783.465 745.117C783.739 745.325 784.012 745.534 784.294 745.749C786.316 747.3 788.281 748.898 790.232 750.52C791.645 751.687 793.097 752.787 794.599 753.862C797.001 755.589 799.224 757.457 801.461 759.35C803.463 761.036 805.535 762.603 807.684 764.138C809.816 765.726 811.818 767.439 813.841 769.137C814.994 770.103 816.16 771.054 817.348 771.985C817.623 772.201 817.898 772.417 818.181 772.639C818.874 773.156 819.612 773.626 820.351 774.089C822.686 775.839 824.086 778.639 824.608 781.276C824.759 784.714 823.473 787.298 821.116 789.956C818.616 792.326 816.058 793.15 812.447 793.328C808.344 793.199 805.002 791.696 802.135 789.095C801.85 788.817 801.566 788.54 801.273 788.255C800.256 787.309 799.175 786.515 798.027 785.698C795.389 783.804 792.938 781.757 790.472 779.689C788.354 777.914 786.163 776.223 783.954 774.54C780.852 772.176 777.804 769.773 774.81 767.299C772.762 765.612 770.659 763.985 768.539 762.37C765.929 760.381 763.341 758.383 760.829 756.295C759.176 754.921 757.489 753.605 755.73 752.341C753.28 750.577 750.99 748.685 748.691 746.767C746.203 744.255 746.203 744.255 743.236 742.785C743.246 743.046 743.257 743.306 743.268 743.575C743.451 751.759 743.451 751.759 741.026 754.039C740.416 754.492 739.79 754.93 739.156 755.357C738.541 755.821 738.541 755.821 737.913 756.295C734.583 758.71 731.753 759.808 727.555 760.385C721.096 761.331 717.761 765.652 713.942 770.008C713.725 770.256 713.507 770.504 713.283 770.76C712.449 771.713 711.616 772.664 710.806 773.634C708.528 776.237 705.372 778.126 702.44 780.096C702.082 780.342 701.724 780.589 701.355 780.842C698.809 782.521 696.08 783.927 693.346 785.343C692.789 785.634 692.789 785.634 692.22 785.931C686.206 788.997 680.008 791.4 673.428 793.304C672.372 793.609 671.319 793.921 670.266 794.235C660.464 797.13 660.464 797.13 657.111 797.13C660.102 800.455 663.203 803.684 666.335 806.903C669.464 810.126 672.553 813.379 675.632 816.64C677.148 818.245 678.672 819.843 680.201 821.438C680.426 821.673 680.651 821.908 680.883 822.15C682.04 823.356 683.198 824.562 684.358 825.766C686.438 827.928 688.506 830.095 690.513 832.312C692.125 834.089 693.813 835.786 695.535 837.478C696.548 838.497 697.515 839.54 698.474 840.601C700.116 842.415 701.803 844.188 703.517 845.949C706.003 848.504 708.46 851.079 710.899 853.669C711.922 854.755 712.946 855.84 713.971 856.924C714.174 857.139 714.377 857.354 714.586 857.576C715.927 858.995 717.281 860.405 718.64 861.811C719.744 862.957 720.84 864.109 721.931 865.264C722.377 865.734 722.377 865.734 722.831 866.214C725.119 868.769 726.326 871.562 726.165 874.867C725.65 878.015 724.109 880.215 721.611 882.422C718.07 884.759 714.313 884.639 710.146 884.325C705.182 883.499 701.068 877.478 698.093 874.164C696.778 872.726 695.419 871.327 694.054 869.928C692.321 868.15 690.613 866.362 688.955 864.529C687.674 863.113 686.359 861.743 684.989 860.397C683.245 858.684 681.604 856.913 679.974 855.114C678.067 853.033 676.097 851 674.134 848.961C672.981 847.764 671.831 846.565 670.682 845.366C670.456 845.131 670.231 844.896 669.999 844.653C668.285 842.864 666.582 841.066 664.883 839.265C663.358 837.651 661.823 836.045 660.284 834.441C658.332 832.407 656.392 830.366 654.459 828.317C652.917 826.683 651.361 825.061 649.802 823.44C648.219 821.793 646.657 820.135 645.128 818.447C642.792 815.874 640.353 813.384 637.921 810.884C636.945 809.879 635.971 808.873 635 807.864C634.54 807.386 634.078 806.909 633.614 806.433C632.606 805.393 631.685 804.374 630.821 803.23C628.892 800.69 627.314 799.96 623.953 799.317C618.597 798.285 614.445 795.463 610.423 792.263C609.821 791.791 609.821 791.791 609.206 791.309C603.561 786.784 597.871 782.043 593.209 776.684C592.334 775.684 591.421 774.721 590.492 773.761C582.094 765.055 582.094 765.055 580.959 760.629C580.809 760.088 580.659 759.547 580.506 759.007C580.955 759.007 581.403 759.007 581.866 759.007C581.993 759.238 582.119 759.468 582.25 759.706C584.711 763.947 587.76 766.177 592.745 767.929C599.658 769.866 606.647 770.504 613.858 770.469C614.895 770.464 615.932 770.468 616.969 770.474C622.981 770.479 629.116 770.222 634.9 768.639C635.406 768.506 635.406 768.506 635.921 768.37C636.944 768.096 637.962 767.811 638.98 767.524C639.286 767.44 639.591 767.357 639.906 767.271C659.146 761.958 677.453 751.305 687.023 735.112C690.243 729.183 691.394 723.348 691.561 716.829C691.968 716.691 691.968 716.691 692.383 716.55C693.476 716.068 693.476 716.068 693.992 714.961C694.237 714.641 694.482 714.32 694.734 713.99C696.057 713.792 696.057 713.792 697.539 713.863C698.032 713.882 698.524 713.9 699.032 713.919C699.409 713.942 699.785 713.966 700.174 713.99C700.068 711.948 700.068 711.948 698.785 710.365C698.496 710.223 698.206 710.081 697.907 709.934C698.361 708.718 698.361 708.718 699.749 707.932C700.408 707.518 700.408 707.518 701.08 707.096C701.08 706.56 701.08 706.025 701.08 705.473C700.789 705.486 700.497 705.499 700.197 705.513C696.783 705.474 694.848 704.548 692.283 702.66C691.017 701.763 690.397 701.411 688.757 701.465C686.724 702.036 685.26 702.857 683.969 704.383C683.303 705.664 682.885 706.945 682.495 708.312C682.346 708.312 682.196 708.312 682.042 708.312C682.042 703.494 682.042 698.676 682.042 693.712C683.538 693.043 685.034 692.374 686.575 691.684C687.831 690.662 687.831 690.662 688.842 689.656C689.582 689.229 690.334 688.816 691.108 688.44C691.572 690.928 691.705 693.399 691.816 695.917C691.836 696.33 691.855 696.743 691.876 697.168C691.923 698.179 691.97 699.19 692.015 700.201C692.613 700.335 693.211 700.469 693.828 700.607C693.871 693.911 693.906 687.223 693.601 680.531C693.244 672.626 693.334 664.716 693.374 656.806Z" fill="#295C59"/>
<path d="M701.53 661.267C703.049 661.753 704.125 662.219 705.263 663.243C705.65 663.589 705.65 663.589 706.045 663.942C706.312 664.188 706.58 664.435 706.856 664.689C707.137 664.945 707.418 665.2 707.708 665.463C709.662 667.26 711.482 669.124 713.222 671.091C714.357 672.369 715.532 673.612 716.715 674.854C718.551 676.787 720.361 678.738 722.153 680.706C723.566 682.256 724.984 683.802 726.404 685.347C726.675 685.643 726.946 685.938 727.225 686.242C728.711 687.857 730.214 689.457 731.74 691.041C736.611 696.114 738.177 700.384 738.82 707.038C739.07 709.462 739.445 710.808 741.533 712.368C741.854 712.611 742.175 712.855 742.507 713.106C742.896 713.398 743.285 713.689 743.686 713.99C744.727 714.782 745.764 715.577 746.802 716.373C747.215 716.689 747.215 716.689 747.637 717.011C749.241 718.239 750.822 719.486 752.383 720.758C753.866 721.963 755.382 723.109 756.944 724.23C759.244 725.893 761.391 727.671 763.542 729.482C765.497 731.12 767.528 732.641 769.619 734.14C771.625 735.631 773.516 737.23 775.423 738.821C777.511 740.562 779.668 742.226 781.842 743.881C782.382 744.293 782.922 744.705 783.462 745.117C783.872 745.43 783.872 745.43 784.291 745.749C786.313 747.3 788.278 748.898 790.228 750.52C791.641 751.687 793.094 752.787 794.596 753.862C796.997 755.589 799.221 757.457 801.457 759.35C803.46 761.036 805.532 762.603 807.681 764.138C809.813 765.726 811.814 767.439 813.837 769.137C814.99 770.103 816.156 771.054 817.345 771.985C817.62 772.201 817.894 772.417 818.177 772.639C818.871 773.156 819.608 773.626 820.348 774.089C822.682 775.839 824.082 778.639 824.605 781.276C824.756 784.714 823.47 787.298 821.113 789.956C818.613 792.326 816.055 793.15 812.444 793.328C808.34 793.199 804.998 791.696 802.131 789.095C801.847 788.817 801.562 788.54 801.269 788.255C800.253 787.309 799.172 786.515 798.024 785.698C795.385 783.804 792.934 781.757 790.468 779.689C788.351 777.914 786.16 776.223 783.95 774.54C780.848 772.176 777.8 769.773 774.807 767.299C772.758 765.612 770.656 763.985 768.535 762.37C765.925 760.381 763.337 758.383 760.826 756.295C759.173 754.921 757.486 753.605 755.726 752.341C753.277 750.577 750.986 748.685 748.688 746.767C746.2 744.255 746.2 744.255 743.232 742.785C743.238 743.083 743.243 743.382 743.248 743.689C743.253 744.085 743.257 744.481 743.261 744.889C743.266 745.279 743.271 745.67 743.277 746.072C743.235 747.187 743.061 748.189 742.779 749.274C742.63 749.274 742.48 749.274 742.326 749.274C742.324 748.891 742.324 748.891 742.322 748.501C742.174 745.566 741.293 744.133 739.153 741.974C738.743 741.54 738.335 741.106 737.928 740.671C737.07 739.757 736.207 738.846 735.339 737.939C732.354 734.788 732.354 734.788 732.354 733.862C732.054 733.862 731.755 733.862 731.447 733.862C730.756 733.175 730.756 733.175 729.917 732.19C728.392 730.437 726.813 728.745 725.186 727.069C723.112 724.924 721.122 722.732 719.176 720.493C717.945 719.075 716.693 717.679 715.412 716.297C713.651 714.376 711.929 712.43 710.227 710.467C709.977 710.182 709.727 709.898 709.47 709.605C704.896 704.292 704.102 699.105 703.892 692.54C703.851 691.367 703.765 690.278 703.57 689.115C703.22 686.819 703.231 684.518 703.173 682.204C703.039 677.804 702.677 673.488 701.991 669.129C701.583 666.49 701.455 663.931 701.53 661.267Z" fill="#295C59"/>
<path d="M709.685 443.888C711.362 444.595 712.518 445.463 713.878 446.6C714.228 446.891 714.228 446.891 714.586 447.189C715.372 447.844 716.155 448.502 716.938 449.16C717.514 449.643 718.091 450.125 718.668 450.608C719.892 451.633 721.116 452.66 722.338 453.688C724.114 455.18 725.894 456.67 727.675 458.158C728.092 458.507 728.092 458.507 728.518 458.863C730.139 460.216 731.766 461.562 733.399 462.904C735.417 464.564 737.408 466.237 739.328 467.988C740.434 468.959 741.615 469.851 742.789 470.756C743.911 471.648 744.954 472.599 746.005 473.557C746.825 474.279 747.67 474.953 748.542 475.624C750.433 477.095 752.261 478.618 754.079 480.16C754.757 480.733 755.435 481.306 756.113 481.879C756.457 482.169 756.8 482.46 757.154 482.759C758.799 484.15 760.448 485.539 762.096 486.928C762.416 487.197 762.735 487.466 763.065 487.743C765.423 489.729 767.788 491.707 770.157 493.683C772.214 495.399 774.267 497.119 776.318 498.841C778.657 500.804 780.999 502.765 783.344 504.722C786.582 507.424 789.815 510.132 793.043 512.843C793.7 513.395 794.358 513.947 795.015 514.498C796.045 515.362 797.075 516.227 798.104 517.091C798.417 517.353 798.73 517.615 799.052 517.885C800.523 519.122 801.974 520.369 803.395 521.651C804.482 522.63 805.59 523.556 806.773 524.442C809.979 526.95 811.767 529.641 812.289 533.486C812.418 537.648 811.683 542.843 808.502 546.089C805.607 547.779 802.557 548.223 799.153 548.04C798.387 548.007 798.387 548.007 797.605 547.972C792.987 547.444 789.98 545.742 786.886 542.717C786.252 542.118 785.618 541.52 784.982 540.923C784.674 540.631 784.366 540.339 784.048 540.039C782.868 538.967 781.613 537.993 780.336 537.016C779.085 536.038 777.93 534.985 776.772 533.922C775.027 532.34 773.252 530.836 771.359 529.396C769.94 528.261 768.618 527.041 767.283 525.83C766.102 524.764 764.902 523.742 763.626 522.769C762.115 521.617 760.713 520.383 759.32 519.119C757.936 517.864 756.544 516.637 755.042 515.494C753.181 514.075 751.484 512.525 749.767 510.969C748.257 509.608 746.701 508.332 745.068 507.09C743.649 505.956 742.328 504.736 740.993 503.525C739.532 502.207 738.018 500.981 736.441 499.777C734.925 498.567 733.521 497.256 732.093 495.962C731.156 495.135 730.205 494.357 729.205 493.594C727.685 492.432 726.273 491.191 724.87 489.919C723.486 488.664 722.095 487.437 720.592 486.294C718.734 484.877 717.04 483.33 715.326 481.777C713.735 480.343 712.099 478.98 710.376 477.673C708.79 476.458 708.79 476.458 708.684 475.275C708.692 474.827 708.701 474.379 708.71 473.917C708.721 473.155 708.721 473.155 708.733 472.377C708.746 471.818 708.76 471.259 708.773 470.701C708.784 470.125 708.794 469.55 708.804 468.975C708.826 467.764 708.851 466.553 708.879 465.343C708.914 463.808 708.943 462.274 708.97 460.74C708.992 459.548 709.015 458.356 709.039 457.165C709.05 456.6 709.061 456.036 709.072 455.472C709.148 451.598 709.361 447.75 709.685 443.888Z" fill="#295C59"/>
<path d="M311.705 434.56C311.738 435.509 311.772 436.457 311.804 437.406C311.814 437.71 311.825 438.014 311.836 438.327C311.893 440.053 311.942 441.78 311.98 443.506C311.996 444.244 312.013 444.982 312.029 445.72C312.037 446.098 312.045 446.475 312.054 446.864C312.111 449.219 312.222 451.568 312.371 453.92C313.173 467.007 313.173 467.007 310.781 470.067C309.344 471.43 307.716 472.404 305.91 473.339C304.225 474.279 302.886 475.522 301.478 476.763C300.918 477.233 300.357 477.701 299.794 478.168C298.654 479.119 297.515 480.071 296.376 481.023C293.731 483.235 291.082 485.443 288.417 487.637C285.803 489.79 283.216 491.967 280.631 494.148C276.438 497.683 272.229 501.204 267.991 504.696C262.94 508.86 257.947 513.08 252.948 517.294C251.331 518.657 249.711 520.018 248.087 521.375C245.335 523.675 242.593 525.972 239.953 528.375C238.866 529.329 237.708 530.201 236.551 531.086C235.555 531.892 234.618 532.738 233.683 533.6C230.6 536.438 227.853 538.375 223.314 538.788C219.693 538.788 216.576 538.219 213.483 536.482C210.153 533.502 208.789 529.726 208.639 525.557C208.82 521.481 210.194 519.415 213.519 516.617C214.789 515.602 216.068 514.597 217.363 513.607C218.561 512.645 219.691 511.627 220.821 510.602C222.484 509.094 224.189 507.667 225.991 506.293C227.414 505.153 228.741 503.929 230.082 502.713C231.543 501.396 233.057 500.169 234.634 498.966C235.74 498.082 236.777 497.149 237.819 496.205C239.132 495.016 240.449 493.867 241.87 492.783C243.39 491.621 244.802 490.379 246.205 489.107C247.877 487.59 249.593 486.154 251.405 484.771C252.921 483.562 254.324 482.252 255.75 480.96C256.98 479.873 258.266 478.869 259.579 477.864C260.602 477.049 261.561 476.191 262.523 475.318C263.76 474.197 265.01 473.123 266.348 472.099C267.786 470.997 269.125 469.832 270.456 468.627C272.052 467.181 273.689 465.827 275.414 464.508C276.525 463.619 277.567 462.681 278.615 461.732C280.211 460.287 281.848 458.932 283.573 457.613C284.684 456.724 285.726 455.786 286.774 454.838C288.37 453.392 290.007 452.038 291.732 450.719C292.843 449.83 293.886 448.892 294.933 447.943C296.246 446.754 297.563 445.605 298.984 444.521C300.504 443.36 301.916 442.118 303.319 440.846C305.05 439.28 306.81 437.783 308.688 436.359C309.457 435.781 309.457 435.781 310.161 435.092C310.798 434.56 310.798 434.56 311.705 434.56Z" fill="#295C59"/>
<path d="M328.474 687.629C329.049 688.15 329.049 688.15 329.747 688.916C332.195 691.489 334.898 693.838 337.569 696.224C338.166 696.759 338.764 697.294 339.361 697.829C340.974 699.275 342.589 700.719 344.204 702.163C345.896 703.675 347.587 705.189 349.277 706.702C352.113 709.24 354.95 711.778 357.788 714.314C361.071 717.249 364.352 720.186 367.633 723.123C370.451 725.647 373.27 728.169 376.09 730.691C377.774 732.197 379.457 733.703 381.14 735.21C382.719 736.624 384.299 738.037 385.88 739.449C386.461 739.969 387.042 740.488 387.622 741.008C388.412 741.716 389.203 742.422 389.994 743.128C390.226 743.336 390.457 743.544 390.696 743.758C391.882 744.825 391.882 744.825 393.294 745.624C392.71 746.754 392.077 747.647 391.153 748.578C390.912 748.824 390.67 749.071 390.42 749.324C390.163 749.584 389.905 749.843 389.64 750.11C389.1 750.659 388.561 751.209 388.023 751.759C387.76 752.028 387.497 752.297 387.226 752.574C386.279 753.553 385.364 754.553 384.455 755.56C382.134 758.122 379.707 760.6 377.287 763.087C376.026 764.385 374.772 765.687 373.52 766.992C373.294 767.225 373.069 767.459 372.837 767.699C371.753 768.83 370.701 769.968 369.723 771.174C367.808 770.506 366.528 769.236 365.111 767.956C364.832 767.707 364.552 767.457 364.265 767.201C363.329 766.365 362.396 765.525 361.463 764.686C360.793 764.087 360.123 763.487 359.452 762.888C357.632 761.259 355.814 759.628 353.996 757.996C352.097 756.292 350.196 754.59 348.294 752.888C344.693 749.664 341.094 746.437 337.497 743.21C333.401 739.536 329.302 735.865 325.204 732.194C316.772 724.641 308.343 717.086 299.917 709.529C303.719 706.122 307.65 702.896 311.848 699.881C313.122 698.94 314.34 697.958 315.555 696.957C317.576 695.293 319.663 693.731 321.802 692.191C323.48 690.949 325.073 689.63 326.663 688.299C327.568 687.629 327.568 687.629 328.474 687.629Z" fill="#FDFDFD"/>
<path d="M691.107 701.418C692.288 702.153 692.288 702.153 693.459 703.04C695.963 704.764 697.958 705.154 701.079 705.068C701.229 705.737 701.379 706.406 701.533 707.096C701.014 707.46 701.014 707.46 700.485 707.831C699.562 708.503 698.723 709.165 697.906 709.935C698.187 710.043 698.467 710.152 698.756 710.264C699.72 710.746 699.72 710.746 700.626 711.962C700.711 713.027 700.711 713.027 700.626 713.99C700.173 714.396 700.173 714.396 698.7 714.446C697.301 714.405 696.087 714.284 694.733 713.99C694.537 714.467 694.537 714.467 694.337 714.953C693.827 716.018 693.827 716.018 692.92 716.829C692.472 716.829 692.023 716.829 691.56 716.829C691.6 717.5 691.6 717.5 691.64 718.184C691.879 724.118 690.536 729.366 687.481 734.674C687.258 735.076 687.036 735.478 686.806 735.892C684.004 740.774 680.341 744.887 676.149 748.868C675.775 749.234 675.775 749.234 675.394 749.608C668.645 755.989 659.401 759.956 650.765 763.874C650.089 764.181 650.089 764.181 649.399 764.493C645.62 766.114 641.615 767.228 637.619 768.335C637.32 768.418 637.02 768.502 636.712 768.588C629.605 770.526 622.426 770.927 615.04 770.895C614.685 770.895 614.331 770.894 613.966 770.893C604.29 770.864 592.585 770.451 585.123 764.203C581.226 760.42 580.684 757.344 580.879 752.35C580.918 751.63 580.918 751.63 580.958 750.896C581.258 750.896 581.557 750.896 581.865 750.896C582.506 751.534 583.114 752.198 583.706 752.873C585.088 754.42 586.491 755.924 587.984 757.385C589.436 758.807 590.805 760.266 592.149 761.77C594.666 764.514 596.27 766.02 600.328 766.528C601.18 766.634 602.031 766.754 602.874 766.91C606.207 767.52 609.405 767.65 612.802 767.625C613.342 767.623 613.883 767.62 614.439 767.618C618.319 767.579 622.013 767.334 625.834 766.713C626.46 766.623 627.087 766.533 627.714 766.445C640.751 764.562 653.041 759.845 663.457 752.518C663.968 752.175 664.479 751.832 664.992 751.49C674.663 744.961 683.172 737.903 685.668 726.968C686.237 723.121 685.152 720.103 683.33 716.645C681.533 713.084 681.444 709.605 682.778 705.879C683.674 703.926 684.601 702.964 686.574 701.823C686.873 701.639 687.173 701.455 687.481 701.266C688.825 700.89 689.747 701.118 691.107 701.418Z" fill="#3B6B68"/>
<path d="M696.489 656.375C697.78 657.138 698.945 657.906 700.116 658.809C700.47 659.08 700.824 659.351 701.189 659.631C702.259 661.285 702.084 662.552 702.011 664.431C701.971 666.44 702.321 668.381 702.637 670.367C703.295 674.815 703.554 679.228 703.666 683.712C703.725 686.005 703.873 688.197 704.252 690.468C704.306 691.519 704.333 692.57 704.36 693.622C704.684 704.833 711.456 711.426 719.108 719.703C720.542 721.256 721.951 722.825 723.354 724.402C725.794 727.135 728.255 729.84 730.898 732.419C731.449 733.051 731.449 733.051 731.449 733.863C731.748 733.863 732.047 733.863 732.356 733.863C733.156 734.701 733.908 735.544 734.65 736.423C736.553 738.655 736.553 738.655 738.562 740.811C738.926 741.186 739.29 741.562 739.665 741.948C739.993 742.278 740.322 742.608 740.66 742.948C741.597 744.244 741.737 745.317 741.875 746.84C740.061 746.84 740.061 746.84 739.219 746.185C738.936 745.882 738.653 745.58 738.362 745.269C738.043 744.932 737.725 744.594 737.397 744.247C736.212 742.945 735.031 741.642 733.866 740.326C729.561 735.446 729.561 735.446 725.018 730.745C722.768 728.52 720.779 726.113 718.757 723.724C716.072 720.563 713.334 717.454 710.524 714.383C708.547 712.216 706.64 710.008 704.76 707.774C703.833 706.683 703.833 706.683 702.766 705.784C701.985 705.068 701.985 705.068 701.985 704.257C701.686 704.24 701.387 704.223 701.079 704.206C698.607 703.561 696.604 702.104 695.186 700.201C695.041 698.992 695.041 698.992 694.998 697.46C694.99 697.173 694.981 696.886 694.972 696.591C694.944 695.614 694.923 694.638 694.903 693.661C694.894 693.323 694.886 692.984 694.878 692.635C694.699 685.33 694.685 678.022 694.677 670.715C694.676 669.807 694.674 668.899 694.672 667.991C694.67 666.549 694.67 665.107 694.672 663.665C694.673 662.866 694.671 662.067 694.67 661.268C694.671 660.792 694.673 660.316 694.674 659.826C694.674 659.407 694.675 658.989 694.675 658.558C694.733 657.617 694.733 657.617 695.186 657.212C694.588 657.078 693.989 656.944 693.373 656.806C693.384 657.146 693.396 657.485 693.407 657.835C693.516 661.107 693.623 664.379 693.727 667.651C693.781 669.332 693.836 671.012 693.892 672.692C694.204 682 694.343 691.295 694.279 700.607C693.401 700.835 693.401 700.835 692.466 701.012C691.769 700.389 691.925 699.796 691.89 698.926C691.874 698.564 691.858 698.201 691.842 697.828C691.826 697.428 691.811 697.027 691.795 696.614C691.768 695.985 691.768 695.985 691.741 695.344C691.683 693.95 691.627 692.557 691.572 691.163C691.532 690.2 691.492 689.237 691.452 688.273C691.347 685.733 691.244 683.192 691.141 680.651C691.037 678.06 690.929 675.469 690.822 672.879C690.612 667.792 690.405 662.705 690.2 657.617C689.602 657.751 689.003 657.885 688.387 658.023C690.536 655.796 693.433 655.484 696.489 656.375Z" fill="#05726B"/>
<path d="M409.614 761.44C413.749 763.137 415.567 766.357 417.32 769.957C418.724 773.727 418.325 778.412 416.442 781.972C413.74 786.161 410.012 789.286 404.847 790.786C403.05 791.201 401.32 791.245 399.472 791.224C399.095 791.22 398.719 791.217 398.332 791.213C393.252 791.089 389.836 789.569 386.043 786.585C388.011 784.119 390.183 781.85 392.41 779.571C393.876 778.067 395.319 776.552 396.724 775.001C398.913 772.585 401.179 770.229 403.449 767.873C404.713 766.558 405.973 765.241 407.234 763.924C407.694 763.444 408.155 762.963 408.615 762.483C408.945 762.139 409.274 761.795 409.614 761.44Z" fill="#FBFBFB"/>
<path d="M307.013 669.2C308.539 670.039 309.612 671.02 310.795 672.217C310.117 673.676 309.197 674.501 307.877 675.538C307.266 676.019 307.266 676.019 306.643 676.509C305.416 677.444 304.173 678.357 302.919 679.264C300.856 680.757 298.904 682.327 296.962 683.943C295.103 685.481 293.162 686.91 291.187 688.329C289.41 689.647 287.732 691.053 286.05 692.469C285.096 693.2 284.293 693.682 283.145 694.118C279.357 690.124 278.195 686.36 278.523 681.122C278.993 676.916 281.741 673.17 285.27 670.494C292.096 665.956 299.495 665.722 307.013 669.2Z" fill="#FBFBFB"/>
<path d="M693.371 656.806C694.269 656.806 695.166 656.806 696.091 656.806C695.792 657.074 695.493 657.341 695.184 657.617C695.048 658.651 695.048 658.651 695.074 659.872C695.073 660.348 695.072 660.824 695.07 661.314C695.075 662.095 695.075 662.095 695.08 662.893C695.08 663.439 695.08 663.985 695.08 664.531C695.08 665.996 695.087 667.461 695.095 668.926C695.099 669.832 695.103 670.737 695.106 671.643C695.118 675.215 695.14 678.788 695.171 682.36C695.183 683.834 695.194 685.309 695.204 686.783C695.218 688.719 695.243 690.654 695.28 692.59C695.292 693.266 695.301 693.943 695.307 694.619C695.316 695.54 695.337 696.46 695.361 697.381C695.371 697.882 695.38 698.384 695.39 698.9C695.757 700.826 696.808 701.799 698.52 702.945C698.878 703.144 699.236 703.342 699.604 703.547C700.252 703.91 700.897 704.279 701.53 704.662C701.53 704.796 701.53 704.93 701.53 705.068C698.464 705.468 696.263 705.359 693.734 703.742C693.234 703.397 692.742 703.043 692.257 702.68C690.999 701.769 690.402 701.411 688.755 701.464C686.723 702.036 685.257 702.856 683.966 704.383C683.3 705.664 682.882 706.945 682.492 708.312C682.343 708.312 682.193 708.312 682.039 708.312C682.039 703.494 682.039 698.676 682.039 693.712C683.535 693.043 685.031 692.374 686.572 691.684C687.828 690.662 687.828 690.662 688.838 689.656C689.579 689.229 690.331 688.816 691.105 688.44C691.569 690.928 691.701 693.399 691.813 695.917C691.833 696.33 691.852 696.743 691.872 697.168C691.92 698.179 691.966 699.19 692.011 700.201C692.61 700.335 693.208 700.469 693.825 700.607C693.868 693.911 693.903 687.223 693.598 680.531C693.241 672.626 693.331 664.716 693.371 656.806Z" fill="#204846"/>
<path d="M695.186 655.995C695.635 656.263 696.084 656.53 696.546 656.806C695.499 656.806 694.452 656.806 693.373 656.806C693.384 657.146 693.396 657.485 693.407 657.835C693.516 661.107 693.623 664.379 693.727 667.651C693.781 669.332 693.836 671.012 693.892 672.692C694.204 682 694.343 691.295 694.279 700.607C693.401 700.835 693.401 700.835 692.466 701.012C691.769 700.389 691.925 699.796 691.89 698.926C691.874 698.564 691.858 698.201 691.842 697.828C691.826 697.428 691.811 697.027 691.795 696.614C691.768 695.985 691.768 695.985 691.741 695.344C691.683 693.95 691.627 692.557 691.572 691.163C691.532 690.2 691.492 689.237 691.452 688.273C691.347 685.733 691.244 683.192 691.141 680.651C691.037 678.06 690.929 675.469 690.822 672.879C690.612 667.792 690.405 662.705 690.2 657.617C689.602 657.751 689.003 657.885 688.387 658.023C690.276 656.065 692.382 655.809 695.186 655.995Z" fill="#295C59"/>
<path d="M513.416 385.082C514.089 385.483 514.089 385.483 514.776 385.893C514.776 386.16 514.776 386.428 514.776 386.704C514.477 386.704 514.178 386.704 513.869 386.704C513.869 459.376 513.869 532.048 513.869 606.922C513.72 606.922 513.57 606.922 513.416 606.922C513.416 533.715 513.416 460.507 513.416 385.082Z" fill="#F6F6F6"/>
<path d="M689.487 683.37C690.649 684.384 690.649 684.384 690.989 685.88C690.789 688.06 689.535 689.687 687.929 691.279C686.786 692.1 685.613 692.723 684.303 693.307C683.756 693.57 683.756 693.57 683.198 693.839C681.425 694.264 679.773 694.4 677.957 694.118C676.568 693.281 676.568 693.281 675.69 692.09C675.329 690.153 675.685 688.766 676.873 687.101C679.874 683.82 684.923 681.588 689.487 683.37ZM678.637 687.35C677.657 688.92 677.728 689.9 677.957 691.684C679.667 692.705 680.406 692.53 682.364 692.28C685.182 691.761 686.792 690.554 688.382 688.44C688.781 686.928 688.781 686.928 688.836 685.601C687.67 684.558 686.984 684.38 685.323 684.181C682.531 684.279 680.616 685.712 678.637 687.35Z" fill="#295C59"/>
<path d="M513.416 266.253C513.865 266.654 514.314 267.056 514.776 267.469C514.776 267.737 514.776 268.005 514.776 268.28C514.477 268.28 514.178 268.28 513.869 268.28C513.869 295.449 513.869 322.617 513.869 350.609C513.72 350.609 513.57 350.609 513.416 350.609C513.416 322.771 513.416 294.934 513.416 266.253Z" fill="#F5F5F5"/>
<path d="M582.775 752.924C584.482 753.433 584.903 754.072 586.005 755.332C587.414 756.912 588.848 758.449 590.368 759.945C594.561 764.078 594.561 764.078 594.561 765.091C590.946 764.641 587.832 762.283 585.607 759.772C584.05 757.664 583.065 755.446 582.775 752.924Z" fill="white"/>
<path d="M692.915 705.068C693.825 706.746 693.899 708.084 693.822 709.935C693.822 710.336 693.822 710.738 693.822 711.151C693.199 712.241 693.199 712.241 692.462 713.179C692.163 713.179 691.864 713.179 691.556 713.179C691.556 712.911 691.556 712.644 691.556 712.368C691.107 712.368 690.658 712.368 690.196 712.368C689.878 711.796 689.567 711.221 689.261 710.644C689.087 710.324 688.914 710.004 688.735 709.675C688.333 708.585 688.336 708.143 688.836 707.096C691.205 705.068 691.205 705.068 692.915 705.068Z" fill="#07544F"/>
<path d="M210.62 376.159C210.919 376.293 211.219 376.427 211.527 376.565C211.317 376.717 211.107 376.869 210.89 377.025C199.851 384.513 199.851 384.513 193.756 395.029C193.331 399.306 193.861 403.589 194.755 407.793C194.606 407.793 194.456 407.793 194.302 407.793C193.629 404.04 193.299 400.364 193.282 396.564C193.278 396.181 193.274 395.798 193.27 395.404C193.289 391.331 193.289 391.331 194.96 389.719C195.844 388.945 196.754 388.204 197.673 387.464C200.786 384.906 203.815 382.288 206.796 379.606C207.176 379.264 207.556 378.922 207.948 378.57C208.84 377.767 209.73 376.964 210.62 376.159Z" fill="#295C59"/>
<path d="M575.977 745.218C576.63 745.627 576.63 745.627 577.336 746.435C577.537 747.516 577.67 748.541 577.761 749.629C578.23 753.941 579.285 757.835 581.935 761.52C582.323 762.252 582.323 762.252 581.869 763.468C579.193 761.074 578.045 758.555 576.883 755.357C576.77 755.052 576.658 754.748 576.541 754.434C575.627 751.452 575.901 748.282 575.977 745.218Z" fill="#295C59"/>
<path d="M687.933 664.512C688.382 664.512 688.831 664.512 689.293 664.512C689.346 666.219 689.378 667.925 689.407 669.632C689.429 670.356 689.429 670.356 689.453 671.094C689.508 675.5 689.508 675.5 687.48 677.49C687.116 677.875 686.751 678.259 686.375 678.656C685.214 679.518 685.214 679.518 683.939 679.644C683.612 679.603 683.284 679.561 682.947 679.518C683.527 677.96 684.299 677.7 685.807 676.872C687.105 675.858 687.431 674.624 687.625 673.122C687.639 672.725 687.653 672.327 687.668 671.918C687.685 671.486 687.703 671.053 687.721 670.607C687.735 670.16 687.749 669.713 687.763 669.252C687.79 668.569 687.79 668.569 687.817 667.873C687.859 666.753 687.898 665.632 687.933 664.512Z" fill="#295C59"/>
<path d="M693.374 656.806C694.272 656.806 695.169 656.806 696.094 656.806C695.795 657.074 695.495 657.341 695.187 657.617C695.019 658.56 695.019 658.56 694.999 659.648C694.982 660.048 694.964 660.448 694.946 660.86C694.932 661.279 694.918 661.698 694.904 662.129C694.886 662.551 694.869 662.973 694.851 663.408C694.808 664.452 694.769 665.495 694.734 666.54C694.584 666.54 694.435 666.54 694.281 666.54C694.131 669.082 693.981 671.625 693.827 674.245C693.678 674.245 693.528 674.245 693.374 674.245C693.374 668.49 693.374 662.735 693.374 656.806Z" fill="#295C59"/>
<path d="M691.098 679.112C691.248 679.112 691.397 679.112 691.551 679.112C691.962 686.146 692.062 693.159 692.005 700.201C691.855 700.201 691.706 700.201 691.551 700.201C691.54 699.944 691.529 699.686 691.517 699.421C691.464 698.244 691.409 697.068 691.353 695.892C691.335 695.487 691.317 695.082 691.299 694.664C691.204 692.694 691.085 690.784 690.645 688.845C690.346 688.979 690.047 689.113 689.738 689.251C689.798 689.029 689.859 688.807 689.921 688.578C690.704 685.432 690.916 682.324 691.098 679.112Z" fill="#295C59"/>
<path d="M223.309 508.372C223.609 508.505 223.908 508.639 224.216 508.777C222.363 510.455 220.508 512.13 218.649 513.802C218.017 514.372 217.386 514.942 216.755 515.513C215.851 516.333 214.943 517.149 214.035 517.966C213.752 518.223 213.469 518.48 213.178 518.745C212.492 519.358 211.783 519.951 211.071 520.538C210.771 520.538 210.472 520.538 210.164 520.538C211.437 517.945 214.064 516.14 216.425 514.328C218.852 512.465 221.068 510.41 223.309 508.372Z" fill="#295C59"/>
<path d="M186.597 769.552C186.897 769.686 187.196 769.819 187.504 769.957C184.662 772.5 181.82 775.043 178.892 777.663C178.892 775.657 180.553 774.585 182.065 773.202C183.549 771.957 185.062 770.746 186.597 769.552Z" fill="#295C59"/>
<path d="M684.761 682.762C686.611 682.63 687.778 682.701 689.492 683.37C690.716 684.439 690.843 684.578 690.909 686.006C690.787 687.398 690.496 688.295 689.294 689.251C688.845 689.251 688.396 689.251 687.934 689.251C688.083 688.046 688.233 686.842 688.387 685.601C686.942 684.739 686.001 684.586 684.308 684.384C684.906 684.25 685.504 684.117 686.121 683.979C686.121 683.711 686.121 683.443 686.121 683.168C685.672 683.034 685.223 682.9 684.761 682.762Z" fill="#D7D7D7"/>
<path d="M689.289 688.845C688.679 690.631 687.886 691.501 686.116 692.495C684.841 692.597 684.841 692.597 683.85 692.495C687.816 688.845 687.816 688.845 689.289 688.845Z" fill="#D7D7D7"/>
<path d="M690.197 711.151C691.244 711.419 692.291 711.686 693.37 711.962C692.922 712.564 692.922 712.564 692.464 713.179C692.165 713.179 691.865 713.179 691.557 713.179C691.557 712.911 691.557 712.644 691.557 712.368C691.108 712.368 690.66 712.368 690.197 712.368C690.197 711.966 690.197 711.565 690.197 711.151Z" fill="#295C59"/>
<path d="M691.56 705.068C692.008 705.068 692.457 705.068 692.92 705.068C693.069 705.737 693.219 706.406 693.373 707.096C693.223 706.828 693.074 706.56 692.92 706.285C692.172 706.285 691.424 706.285 690.653 706.285C690.952 705.883 691.251 705.482 691.56 705.068ZM689.747 706.285C690.046 706.418 690.345 706.552 690.653 706.69C689.905 707.359 689.157 708.028 688.387 708.718C688.647 707.555 688.777 707.152 689.747 706.285Z" fill="#9F9F9F"/>
<path d="M579.598 760.224C580.448 760.325 580.448 760.325 581.411 760.629C582.006 761.39 582.006 761.39 582.317 762.252C582.168 762.653 582.018 763.055 581.864 763.468C580.731 762.53 580.731 762.53 579.598 761.441C579.598 761.039 579.598 760.638 579.598 760.224Z" fill="#295C59"/>
<path d="M680.223 684.384C680.672 684.518 681.121 684.652 681.583 684.79C680.851 685.618 680.094 686.429 679.317 687.223C679.018 687.223 678.718 687.223 678.41 687.223C678.897 686.041 679.216 685.285 680.223 684.384Z" fill="#295C59"/>
<path d="M577.335 753.735C578.043 754.394 578.043 754.394 578.694 755.357C578.553 756.675 578.553 756.675 578.241 757.79C577.335 756.979 577.335 756.979 577.246 756.19C577.276 755.372 577.305 754.553 577.335 753.735Z" fill="#295C59"/>
<path d="M692.914 705.068C693.731 706.621 693.909 707.818 693.821 709.529C693.521 709.395 693.222 709.261 692.914 709.123C692.914 708.588 692.914 708.053 692.914 707.501C691.802 707.544 691.802 707.544 690.648 707.907C690.024 708.911 690.024 708.911 689.741 709.935C689.033 709.428 689.033 709.428 688.381 708.718C688.353 707.957 688.353 707.957 688.834 707.096C691.204 705.068 691.204 705.068 692.914 705.068Z" fill="#07544F"/>
<path d="M690.645 709.124C690.794 709.391 690.944 709.659 691.098 709.935C691.696 709.935 692.295 709.935 692.911 709.935C693.21 709.935 693.51 709.935 693.818 709.935C693.519 710.47 693.22 711.005 692.911 711.557C691.864 711.423 690.817 711.289 689.738 711.151C690.037 710.482 690.337 709.813 690.645 709.124Z" fill="#07544F"/>
<path d="M691.105 708.312C691.704 708.446 692.302 708.58 692.919 708.718C692.919 709.253 692.919 709.789 692.919 710.34C692.47 710.541 692.47 710.541 692.012 710.746C692.012 710.478 692.012 710.211 692.012 709.935C691.713 709.935 691.414 709.935 691.105 709.935C691.105 709.399 691.105 708.864 691.105 708.312Z" fill="#07544F"/>
<path d="M690.65 706.285C690.949 706.419 691.248 706.552 691.557 706.69C690.826 707.79 690.084 708.87 689.29 709.935C688.95 709.022 688.95 709.022 688.837 707.907C689.715 706.969 689.715 706.969 690.65 706.285Z" fill="#07544F"/>
</g>
<defs>
<clipPath id="clip0_10_312">
<rect width="1000" height="1000" fill="white"/>
</clipPath>
</defs>
</svg>
